
<svg version="1.1"
  width="1280"
  height="1280"
  viewBox="-10 -10 120 120"
  xmlns="http://www.w3.org/2000/svg"
>
  <path stroke="red" stroke-width="1px" d="M25.1,25A0.1,0.1,0,1,1,24.9,25A0.1,0.1,0,1,1,25.1,25M25.1,75A0.1,0.1,0,1,1,24.9,75A0.1,0.1,0,1,1,25.1,75M75.1,75A0.1,0.1,0,1,1,74.9,75A0.1,0.1,0,1,1,75.1,75M75.1,25A0.1,0.1,0,1,1,74.9,25A0.1,0.1,0,1,1,75.1,25M50.1,50A0.1,0.1,0,1,1,49.9,50A0.1,0.1,0,1,1,50.1,50"/>
  <path stroke="green" fill="none" stroke-width="0.2px" d="M50,50L25,25M25,75L50,50M75,75L50,50M75,25L50,50M75,75L75,25L25,25L25,75Z"/>
  <path stroke="blue" fill="none" stroke-width="0.2px" d="M25,50L50,25M25,50L50,75M50,75L75,50M75,50L50,25M50,75L50,100M75,50L100,50M50,25L50,0M25,50L0,50"/>
  <path stroke="black" fill="none" stroke-width="0.2px" d="M0,0h100v100h-100Z"/>
</svg>