
<svg version="1.1"
  width="1280"
  height="1280"
  viewBox="-10 -10 120 120"
  xmlns="http://www.w3.org/2000/svg"
>
  <path stroke="black" fill="red" stroke-width="1px" d="M92,73A2,2,0,1,1,88,73A2,2,0,1,1,92,73M9,87A2,2,0,1,1,5,87A2,2,0,1,1,9,87M35,85A2,2,0,1,1,31,85A2,2,0,1,1,35,85"/>
  <path stroke="green" fill="none" stroke-width="0.2px" d="M33,85L90,73L7,87Z"/>
  <path stroke="blue" fill="none" stroke-width="0.2px" d="M13.384615384615387,0L21.07692307692308,100M44.8684210526316,0L65.92105263157896,100"/>
  <path stroke="black" fill="none" stroke-width="0.2px" d="M0,0h100v100h-100Z"/>
</svg>